<mxfile host="app.diagrams.net" modified="2022-09-01T22:21:40.185Z" agent="5.0 (X11; Linux x86_64) AppleWebKit/537.36 (KHTML, like Gecko) Chrome/104.0.0.0 Safari/537.36" etag="b66w4h_wLnTWicyBy3-3" version="14.8.6" type="github">
  <diagram id="eKpoH1L4Le-edE9UuhKI" name="Page-1">
    <mxGraphModel dx="1422" dy="1921" grid="1" gridSize="10" guides="1" tooltips="1" connect="1" arrows="1" fold="1" page="1" pageScale="1" pageWidth="827" pageHeight="1169" math="0" shadow="0">
      <root>
        <mxCell id="0" />
        <mxCell id="1" parent="0" />
        <mxCell id="5R1gBEcSU_pZmVtth612-1" value="APP1" style="rounded=0;whiteSpace=wrap;html=1;fillColor=#d5e8d4;strokeColor=#82b366;" vertex="1" parent="1">
          <mxGeometry y="330" width="350" height="180" as="geometry" />
        </mxCell>
        <mxCell id="5R1gBEcSU_pZmVtth612-40" style="edgeStyle=orthogonalEdgeStyle;rounded=0;orthogonalLoop=1;jettySize=auto;html=1;fontColor=#FF1F4B;" edge="1" parent="1" source="5R1gBEcSU_pZmVtth612-2" target="5R1gBEcSU_pZmVtth612-36">
          <mxGeometry relative="1" as="geometry">
            <Array as="points">
              <mxPoint x="87" y="646" />
            </Array>
          </mxGeometry>
        </mxCell>
        <mxCell id="5R1gBEcSU_pZmVtth612-44" value="提供权限" style="edgeLabel;html=1;align=center;verticalAlign=middle;resizable=0;points=[];fontColor=#FF1F4B;" vertex="1" connectable="0" parent="5R1gBEcSU_pZmVtth612-40">
          <mxGeometry x="0.1742" y="2" relative="1" as="geometry">
            <mxPoint as="offset" />
          </mxGeometry>
        </mxCell>
        <mxCell id="5R1gBEcSU_pZmVtth612-2" value="" style="outlineConnect=0;dashed=0;verticalLabelPosition=bottom;verticalAlign=top;align=center;html=1;shape=mxgraph.aws3.android;fillColor=#EE472A;gradientColor=none;" vertex="1" parent="1">
          <mxGeometry x="50" y="370" width="73.5" height="84" as="geometry" />
        </mxCell>
        <mxCell id="5R1gBEcSU_pZmVtth612-3" value="" style="dashed=0;outlineConnect=0;html=1;align=center;labelPosition=center;verticalLabelPosition=bottom;verticalAlign=top;shape=mxgraph.weblogos.html5" vertex="1" parent="1">
          <mxGeometry x="233.5" y="374" width="60" height="80" as="geometry" />
        </mxCell>
        <mxCell id="5R1gBEcSU_pZmVtth612-6" value="APP2" style="rounded=0;whiteSpace=wrap;html=1;fillColor=#d5e8d4;strokeColor=#82b366;" vertex="1" parent="1">
          <mxGeometry x="840" y="330" width="350" height="180" as="geometry" />
        </mxCell>
        <mxCell id="5R1gBEcSU_pZmVtth612-41" style="edgeStyle=orthogonalEdgeStyle;rounded=0;orthogonalLoop=1;jettySize=auto;html=1;fontColor=#FF1F4B;" edge="1" parent="1" source="5R1gBEcSU_pZmVtth612-7" target="5R1gBEcSU_pZmVtth612-36">
          <mxGeometry relative="1" as="geometry">
            <Array as="points">
              <mxPoint x="1087" y="646" />
            </Array>
          </mxGeometry>
        </mxCell>
        <mxCell id="5R1gBEcSU_pZmVtth612-45" value="提供权限" style="edgeLabel;html=1;align=center;verticalAlign=middle;resizable=0;points=[];fontColor=#FF1F4B;" vertex="1" connectable="0" parent="5R1gBEcSU_pZmVtth612-41">
          <mxGeometry x="0.046" y="1" relative="1" as="geometry">
            <mxPoint x="-54" y="-1" as="offset" />
          </mxGeometry>
        </mxCell>
        <mxCell id="5R1gBEcSU_pZmVtth612-7" value="" style="outlineConnect=0;dashed=0;verticalLabelPosition=bottom;verticalAlign=top;align=center;html=1;shape=mxgraph.aws3.android;fillColor=#EE472A;gradientColor=none;" vertex="1" parent="1">
          <mxGeometry x="1050" y="380" width="73.5" height="84" as="geometry" />
        </mxCell>
        <mxCell id="5R1gBEcSU_pZmVtth612-49" style="edgeStyle=orthogonalEdgeStyle;rounded=0;orthogonalLoop=1;jettySize=auto;html=1;entryX=0.5;entryY=0;entryDx=0;entryDy=0;fontColor=#FF1F4B;startArrow=classic;startFill=1;endArrow=classicThin;endFill=1;" edge="1" parent="1" source="5R1gBEcSU_pZmVtth612-10" target="5R1gBEcSU_pZmVtth612-19">
          <mxGeometry relative="1" as="geometry" />
        </mxCell>
        <mxCell id="5R1gBEcSU_pZmVtth612-10" value="" style="dashed=0;outlineConnect=0;html=1;align=center;labelPosition=center;verticalLabelPosition=bottom;verticalAlign=top;shape=mxgraph.weblogos.chrome;fontColor=#FF1F4B;" vertex="1" parent="1">
          <mxGeometry x="564.5" y="-55" width="70" height="70" as="geometry" />
        </mxCell>
        <mxCell id="5R1gBEcSU_pZmVtth612-50" style="edgeStyle=orthogonalEdgeStyle;rounded=0;orthogonalLoop=1;jettySize=auto;html=1;fontColor=#FF1F4B;startArrow=classic;startFill=1;endArrow=classicThin;endFill=1;" edge="1" parent="1" source="5R1gBEcSU_pZmVtth612-19" target="5R1gBEcSU_pZmVtth612-2">
          <mxGeometry relative="1" as="geometry" />
        </mxCell>
        <mxCell id="5R1gBEcSU_pZmVtth612-52" style="edgeStyle=orthogonalEdgeStyle;rounded=0;orthogonalLoop=1;jettySize=auto;html=1;entryX=0.5;entryY=0;entryDx=0;entryDy=0;entryPerimeter=0;fontColor=#FF1F4B;startArrow=classic;startFill=1;endArrow=classicThin;endFill=1;" edge="1" parent="1" source="5R1gBEcSU_pZmVtth612-19" target="5R1gBEcSU_pZmVtth612-7">
          <mxGeometry relative="1" as="geometry" />
        </mxCell>
        <mxCell id="5R1gBEcSU_pZmVtth612-19" value="" style="rounded=1;whiteSpace=wrap;html=1;fillColor=#fff2cc;strokeColor=#d6b656;" vertex="1" parent="1">
          <mxGeometry x="240" y="125" width="720" height="80" as="geometry" />
        </mxCell>
        <mxCell id="5R1gBEcSU_pZmVtth612-51" style="edgeStyle=orthogonalEdgeStyle;rounded=0;orthogonalLoop=1;jettySize=auto;html=1;fontColor=#FF1F4B;startArrow=classic;startFill=1;endArrow=classicThin;endFill=1;" edge="1" parent="1" source="5R1gBEcSU_pZmVtth612-17" target="5R1gBEcSU_pZmVtth612-3">
          <mxGeometry relative="1" as="geometry">
            <Array as="points">
              <mxPoint x="340" y="165" />
              <mxPoint x="340" y="424" />
            </Array>
          </mxGeometry>
        </mxCell>
        <mxCell id="5R1gBEcSU_pZmVtth612-17" value="" style="outlineConnect=0;fontColor=#232F3E;gradientColor=none;fillColor=#5A30B5;strokeColor=none;dashed=0;verticalLabelPosition=bottom;verticalAlign=top;align=center;html=1;fontSize=12;fontStyle=0;aspect=fixed;pointerEvents=1;shape=mxgraph.aws4.nat_gateway;" vertex="1" parent="1">
          <mxGeometry x="300" y="130" width="70" height="70" as="geometry" />
        </mxCell>
        <mxCell id="5R1gBEcSU_pZmVtth612-20" value="" style="outlineConnect=0;fontColor=#232F3E;gradientColor=none;fillColor=#5A30B5;strokeColor=none;dashed=0;verticalLabelPosition=bottom;verticalAlign=top;align=center;html=1;fontSize=12;fontStyle=0;aspect=fixed;pointerEvents=1;shape=mxgraph.aws4.nat_gateway;" vertex="1" parent="1">
          <mxGeometry x="558.5" y="130" width="70" height="70" as="geometry" />
        </mxCell>
        <mxCell id="5R1gBEcSU_pZmVtth612-21" value="" style="outlineConnect=0;fontColor=#232F3E;gradientColor=none;fillColor=#5A30B5;strokeColor=none;dashed=0;verticalLabelPosition=bottom;verticalAlign=top;align=center;html=1;fontSize=12;fontStyle=0;aspect=fixed;pointerEvents=1;shape=mxgraph.aws4.nat_gateway;" vertex="1" parent="1">
          <mxGeometry x="780" y="130" width="70" height="70" as="geometry" />
        </mxCell>
        <mxCell id="5R1gBEcSU_pZmVtth612-36" value="&lt;font color=&quot;#000000&quot;&gt;权限表&lt;/font&gt;" style="aspect=fixed;html=1;points=[];align=center;image;fontSize=12;image=img/lib/azure2/general/Table.svg;fontColor=#FF1F4B;" vertex="1" parent="1">
          <mxGeometry x="568.5" y="620" width="64" height="52" as="geometry" />
        </mxCell>
        <mxCell id="5R1gBEcSU_pZmVtth612-55" value="app2/ 开始静态资源" style="text;html=1;strokeColor=none;fillColor=none;align=center;verticalAlign=middle;whiteSpace=wrap;rounded=0;fontColor=#FF1F4B;" vertex="1" parent="1">
          <mxGeometry x="719" y="270" width="260" height="20" as="geometry" />
        </mxCell>
        <mxCell id="5R1gBEcSU_pZmVtth612-62" style="edgeStyle=orthogonalEdgeStyle;rounded=0;orthogonalLoop=1;jettySize=auto;html=1;entryX=0.75;entryY=1;entryDx=0;entryDy=0;fontColor=#FF1F4B;startArrow=classic;startFill=1;endArrow=classicThin;endFill=1;" edge="1" parent="1" source="5R1gBEcSU_pZmVtth612-56" target="5R1gBEcSU_pZmVtth612-19">
          <mxGeometry relative="1" as="geometry">
            <Array as="points">
              <mxPoint x="780" y="410" />
            </Array>
          </mxGeometry>
        </mxCell>
        <mxCell id="5R1gBEcSU_pZmVtth612-56" value="" style="dashed=0;outlineConnect=0;html=1;align=center;labelPosition=center;verticalLabelPosition=bottom;verticalAlign=top;shape=mxgraph.weblogos.html5" vertex="1" parent="1">
          <mxGeometry x="890" y="370" width="60" height="80" as="geometry" />
        </mxCell>
        <mxCell id="5R1gBEcSU_pZmVtth612-58" value="框架(imsc)" style="rounded=0;whiteSpace=wrap;html=1;fillColor=#d5e8d4;strokeColor=#82b366;" vertex="1" parent="1">
          <mxGeometry x="418.5" y="332" width="350" height="180" as="geometry" />
        </mxCell>
        <mxCell id="5R1gBEcSU_pZmVtth612-63" style="edgeStyle=orthogonalEdgeStyle;rounded=0;orthogonalLoop=1;jettySize=auto;html=1;entryX=0.615;entryY=1.025;entryDx=0;entryDy=0;entryPerimeter=0;fontColor=#FF1F4B;startArrow=classic;startFill=1;endArrow=classicThin;endFill=1;" edge="1" parent="1" source="5R1gBEcSU_pZmVtth612-59" target="5R1gBEcSU_pZmVtth612-19">
          <mxGeometry relative="1" as="geometry" />
        </mxCell>
        <mxCell id="5R1gBEcSU_pZmVtth612-59" value="" style="outlineConnect=0;dashed=0;verticalLabelPosition=bottom;verticalAlign=top;align=center;html=1;shape=mxgraph.aws3.android;fillColor=#EE472A;gradientColor=none;" vertex="1" parent="1">
          <mxGeometry x="645.5" y="378" width="73.5" height="84" as="geometry" />
        </mxCell>
        <mxCell id="5R1gBEcSU_pZmVtth612-68" style="edgeStyle=orthogonalEdgeStyle;rounded=0;orthogonalLoop=1;jettySize=auto;html=1;entryX=0.333;entryY=1.063;entryDx=0;entryDy=0;entryPerimeter=0;fontColor=#FF1F4B;startArrow=classic;startFill=1;endArrow=classicThin;endFill=1;" edge="1" parent="1" source="5R1gBEcSU_pZmVtth612-60" target="5R1gBEcSU_pZmVtth612-19">
          <mxGeometry relative="1" as="geometry" />
        </mxCell>
        <mxCell id="5R1gBEcSU_pZmVtth612-60" value="" style="dashed=0;outlineConnect=0;html=1;align=center;labelPosition=center;verticalLabelPosition=bottom;verticalAlign=top;shape=mxgraph.weblogos.html5" vertex="1" parent="1">
          <mxGeometry x="450.5" y="372" width="60" height="80" as="geometry" />
        </mxCell>
        <mxCell id="5R1gBEcSU_pZmVtth612-64" value="app2/api 开始的API请求" style="text;html=1;strokeColor=none;fillColor=none;align=center;verticalAlign=middle;whiteSpace=wrap;rounded=0;fontColor=#FF1F4B;" vertex="1" parent="1">
          <mxGeometry x="920" y="140" width="260" height="20" as="geometry" />
        </mxCell>
        <mxCell id="5R1gBEcSU_pZmVtth612-65" value="app1/api 开始的API请求" style="text;html=1;strokeColor=none;fillColor=none;align=center;verticalAlign=middle;whiteSpace=wrap;rounded=0;fontColor=#FF1F4B;" vertex="1" parent="1">
          <mxGeometry x="10" y="140" width="260" height="20" as="geometry" />
        </mxCell>
        <mxCell id="5R1gBEcSU_pZmVtth612-67" value="imsc/api 开始的API请求" style="text;html=1;strokeColor=none;fillColor=none;align=center;verticalAlign=middle;whiteSpace=wrap;rounded=0;fontColor=#FF1F4B;" vertex="1" parent="1">
          <mxGeometry x="480" y="230" width="260" height="20" as="geometry" />
        </mxCell>
        <mxCell id="5R1gBEcSU_pZmVtth612-69" value="imsc/ 开始的静态资源" style="text;html=1;strokeColor=none;fillColor=none;align=center;verticalAlign=middle;whiteSpace=wrap;rounded=0;fontColor=#FF1F4B;" vertex="1" parent="1">
          <mxGeometry x="418.5" y="290" width="260" height="20" as="geometry" />
        </mxCell>
        <mxCell id="5R1gBEcSU_pZmVtth612-70" value="app1/ 开始的静态资源" style="text;html=1;strokeColor=none;fillColor=none;align=center;verticalAlign=middle;whiteSpace=wrap;rounded=0;fontColor=#FF1F4B;" vertex="1" parent="1">
          <mxGeometry x="150" y="270" width="260" height="20" as="geometry" />
        </mxCell>
        <mxCell id="5R1gBEcSU_pZmVtth612-71" value="映射规则：&lt;br&gt;/&amp;nbsp; &amp;nbsp;映射为imsc/index.js&lt;br&gt;app4/* 找不到app直接报错" style="text;html=1;strokeColor=none;fillColor=none;align=left;verticalAlign=top;whiteSpace=wrap;rounded=0;fontColor=#FF1F4B;" vertex="1" parent="1">
          <mxGeometry x="647" y="30" width="180" height="65" as="geometry" />
        </mxCell>
      </root>
    </mxGraphModel>
  </diagram>
</mxfile>
